<svg version="1.1" id="Layer_1" xmlns="http://www.w3.org/2000/svg" xmlns:xlink="http://www.w3.org/1999/xlink" x="0px" y="0px" viewBox="281 371 50 50" enable-background="new 281 371 50 50" xml:space="preserve">
<path d="M315.136,389.088c-0.213-0.547-0.467-0.938-0.878-1.348c-0.409-0.41-0.8-0.664-1.347-0.876
	c-0.414-0.16-1.033-0.352-2.177-0.404c-1.235-0.056-1.605-0.068-4.734-0.068s-3.5,0.012-4.735,0.068
	c-1.142,0.053-1.763,0.243-2.176,0.404c-0.546,0.212-0.937,0.466-1.347,0.876c-0.411,0.411-0.664,0.801-0.877,1.348
	c-0.16,0.413-0.352,1.034-0.403,2.176c-0.056,1.236-0.068,1.606-0.068,4.735c0,3.129,0.012,3.5,0.068,4.735
	c0.052,1.142,0.243,1.763,0.403,2.176c0.213,0.547,0.466,0.938,0.877,1.348c0.41,0.41,0.801,0.664,1.347,0.876
	c0.414,0.16,1.034,0.353,2.176,0.403c1.235,0.057,1.606,0.068,4.735,0.068s3.5-0.012,4.734-0.068
	c1.144-0.053,1.765-0.243,2.177-0.403c0.547-0.212,0.938-0.466,1.347-0.876c0.411-0.41,0.665-0.801,0.878-1.348
	c0.16-0.413,0.351-1.034,0.402-2.176c0.057-1.235,0.068-1.606,0.068-4.735c0-3.128-0.012-3.5-0.068-4.735
	C315.486,390.122,315.296,389.501,315.136,389.088z M306,402.018c-3.323,0-6.018-2.694-6.018-6.018s2.695-6.018,6.018-6.018
	s6.018,2.695,6.018,6.018S309.323,402.018,306,402.018z M312.255,391.151c-0.775,0-1.405-0.63-1.405-1.406
	c0-0.777,0.63-1.406,1.405-1.406c0.777,0,1.406,0.629,1.406,1.406C313.661,390.521,313.032,391.151,312.255,391.151z M281,371v50h50
	v-50H281z M317.648,400.831c-0.057,1.248-0.255,2.1-0.545,2.845c-0.299,0.77-0.7,1.425-1.352,2.076s-1.305,1.052-2.075,1.352
	c-0.745,0.289-1.597,0.487-2.845,0.544c-1.25,0.058-1.649,0.071-4.832,0.071c-3.183,0-3.582-0.014-4.832-0.07
	c-1.247-0.057-2.099-0.255-2.844-0.545c-0.771-0.299-1.424-0.7-2.076-1.352s-1.053-1.305-1.352-2.075
	c-0.29-0.745-0.488-1.597-0.545-2.845c-0.058-1.25-0.071-1.649-0.071-4.832c0-3.183,0.013-3.582,0.07-4.832
	c0.057-1.248,0.255-2.099,0.544-2.845c0.299-0.77,0.7-1.424,1.352-2.076c0.652-0.651,1.305-1.052,2.076-1.352
	c0.746-0.29,1.598-0.487,2.845-0.544c1.25-0.057,1.649-0.07,4.832-0.07c3.183,0,3.582,0.013,4.831,0.07
	c1.248,0.057,2.1,0.255,2.845,0.544c0.77,0.299,1.425,0.7,2.076,1.352c0.651,0.652,1.052,1.305,1.352,2.076
	c0.289,0.746,0.487,1.597,0.544,2.845c0.058,1.25,0.071,1.649,0.071,4.832C317.719,399.183,317.705,399.582,317.648,400.831z
	 M306,392.094c-2.157,0-3.906,1.75-3.906,3.906c0,2.157,1.749,3.906,3.906,3.906s3.906-1.749,3.906-3.906
	C309.906,393.843,308.157,392.094,306,392.094z"/>
</svg>
