<svg version="1.1" id="Layer_1" xmlns="http://www.w3.org/2000/svg" xmlns:xlink="http://www.w3.org/1999/xlink" x="0px" y="0px" viewBox="281 371 50 50" enable-background="new 281 371 50 50" xml:space="preserve">
<path d="M281,371v50h50v-50H281z M315.922,390.922c0,0.234,0,0.469,0,0.625c0,6.797-5.156,14.609-14.531,14.609
	c-2.891,0-5.625-0.859-7.891-2.266c0.391,0.078,0.781,0.078,1.25,0.078c2.422,0,4.609-0.781,6.406-2.188
	c-2.266-0.078-4.141-1.562-4.766-3.594c0.312,0.078,0.625,0.078,0.938,0.078c0.469,0,0.938-0.078,1.328-0.156
	c-2.344-0.469-4.141-2.578-4.141-5v-0.078c0.703,0.391,1.484,0.625,2.344,0.625c-1.406-0.938-2.266-2.5-2.266-4.297
	c0-0.938,0.234-1.797,0.703-2.578c2.5,3.125,6.328,5.156,10.547,5.391c-0.078-0.391-0.156-0.781-0.156-1.172
	c0-2.812,2.266-5.156,5.156-5.156c1.484,0,2.812,0.625,3.75,1.641c1.172-0.234,2.266-0.625,3.281-1.25
	c-0.391,1.172-1.172,2.188-2.266,2.812c1.016-0.156,2.031-0.391,2.969-0.781C317.797,389.281,316.938,390.141,315.922,390.922z"/>
</svg>
