<svg version="1.1" id="Layer_1" xmlns="http://www.w3.org/2000/svg" xmlns:xlink="http://www.w3.org/1999/xlink" x="0px" y="0px" viewBox="281 371 50 50" enable-background="new 281 371 50 50" xml:space="preserve">
<path d="M281,371v50h50v-50H281z M312.953,399.906c-3.203,4.141-5.859,6.25-8.125,6.25c-1.328,0-2.5-1.25-3.438-3.75
	c-0.625-2.344-1.25-4.609-1.875-6.953c-0.703-2.5-1.484-3.75-2.266-3.75c-0.156,0-0.781,0.391-1.875,1.094l-1.094-1.484
	c1.172-1.016,2.266-2.031,3.438-3.047c1.562-1.328,2.734-2.031,3.438-2.109c1.797-0.156,2.969,1.094,3.359,3.75
	c0.469,2.891,0.781,4.688,0.938,5.391c0.547,2.422,1.094,3.594,1.719,3.594c0.469,0,1.25-0.781,2.188-2.344
	c1.016-1.562,1.484-2.734,1.562-3.516c0.156-1.328-0.391-2.031-1.562-2.031c-0.547,0-1.172,0.156-1.719,0.391
	c1.172-3.75,3.359-5.625,6.562-5.469c2.422,0.078,3.516,1.641,3.438,4.688C317.641,392.797,316,395.922,312.953,399.906z"/>
</svg>
